<?xml version="1.0" encoding="UTF-8"?>
<svg xmlns="http://www.w3.org/2000/svg" xmlns:xlink="http://www.w3.org/1999/xlink" width="400" zoomAndPan="magnify" viewBox="0 0 300 149.999998" height="200" preserveAspectRatio="xMidYMid meet" version="1.0">
  <defs>
    <linearGradient id="linear-gradient" x1="0.108" y1="0.209" x2="0.671" y2="0.673" gradientUnits="objectBoundingBox">
      <stop offset="0" stop-color="#ffd631"></stop>
      <stop offset="0.35" stop-color="#69b42e"></stop>
      <stop offset="0.69" stop-color="#009c3e"></stop>
      <stop offset="1" stop-color="#009c3e"></stop>
    </linearGradient>
  </defs>
  <g fill="url(#linear-gradient)" fill-opacity="1">
    <g transform="translate(2.46094, 100.019326)">
      <g>
        <path d="M 98.4375 -46.757812 C 98.4375 -71.628906 80.15625 -93.074219 52.910156 -93.074219 C 25.75 -93.074219 6.0625 -71.542969 6.0625 -45.175781 C 6.0625 -18.808594 25.75 2.722656 52.910156 2.722656 C 75.410156 2.722656 91.492188 -12.128906 96.0625 -28.386719 L 72.859375 -28.386719 C 69.785156 -20.742188 63.191406 -16.257812 52.46875 -16.257812 C 39.988281 -16.257812 29.617188 -24.785156 27.421875 -39.550781 L 97.996094 -39.550781 C 98.347656 -42.890625 98.4375 -44.472656 98.4375 -46.757812 Z M 28.300781 -55.984375 C 31.902344 -68.730469 42.097656 -74.53125 52.820312 -74.53125 C 65.300781 -74.53125 75.847656 -66.09375 76.726562 -55.984375 Z M 28.300781 -55.984375 "></path>
      </g>
    </g>
  </g>
  <g fill="#009c3e" fill-opacity="1">
    <g transform="translate(96.732419, 100.019326)">
      <g>
        <path d="M 52.734375 2.722656 C 75.9375 2.722656 92.988281 -12.128906 97.644531 -33.046875 L 76.023438 -33.046875 C 72.070312 -21.796875 63.105469 -16.960938 52.820312 -16.960938 C 39.8125 -16.960938 27.15625 -27.332031 27.15625 -45.175781 C 27.15625 -62.929688 39.726562 -73.300781 52.820312 -73.300781 C 63.105469 -73.300781 71.980469 -68.464844 76.023438 -58.445312 L 97.734375 -58.445312 C 92.636719 -78.308594 76.023438 -93.074219 52.734375 -93.074219 C 25.75 -93.074219 6.0625 -71.453125 6.0625 -45.175781 C 6.0625 -18.808594 25.75 2.722656 52.734375 2.722656 Z M 52.734375 2.722656 "></path>
      </g>
    </g>
  </g>
  <g fill="#009c3e" fill-opacity="1">
    <g transform="translate(190.124992, 100.019326)">
      <g>
        <path d="M 53.523438 2.722656 C 81.386719 2.722656 101.335938 -18.542969 101.335938 -45.175781 C 101.335938 -71.628906 81.386719 -93.074219 53.613281 -93.074219 C 25.925781 -93.074219 6.0625 -71.542969 6.0625 -45.175781 C 6.0625 -18.632812 26.015625 2.722656 53.523438 2.722656 Z M 53.699219 -17.050781 C 38.496094 -17.050781 27.15625 -28.828125 27.15625 -45.175781 C 27.15625 -61.433594 38.496094 -73.386719 53.699219 -73.386719 C 68.90625 -73.386719 80.242188 -61.433594 80.242188 -45.175781 C 80.242188 -28.828125 68.90625 -17.050781 53.699219 -17.050781 Z M 53.699219 -17.050781 "></path>
      </g>
    </g>
  </g>
  <g fill="#000000" fill-opacity="1">
    <g transform="translate(9.515472, 139.453887)">
      <g>
        <path d="M 8.027344 0 L 8.027344 -11.210938 L 21.425781 -11.210938 L 21.425781 0 L 26.308594 0 L 26.308594 -26.5625 L 21.425781 -26.5625 L 21.425781 -15.546875 L 8.027344 -15.546875 L 8.027344 -26.5625 L 3.164062 -26.5625 L 3.164062 0 Z M 8.027344 0 "></path>
      </g>
    </g>
  </g>
  <g fill="#000000" fill-opacity="1">
    <g transform="translate(38.305254, 139.453887)">
      <g>
        <path d="M 21.875 -10.390625 C 21.875 -15.917969 17.8125 -20.683594 11.757812 -20.683594 C 5.722656 -20.683594 1.347656 -15.898438 1.347656 -10.039062 C 1.347656 -4.179688 5.722656 0.605469 11.757812 0.605469 C 16.757812 0.605469 20.332031 -2.695312 21.347656 -6.308594 L 16.191406 -6.308594 C 15.507812 -4.609375 14.042969 -3.613281 11.660156 -3.613281 C 8.886719 -3.613281 6.582031 -5.507812 6.09375 -8.789062 L 21.777344 -8.789062 C 21.855469 -9.53125 21.875 -9.882812 21.875 -10.390625 Z M 6.289062 -12.441406 C 7.089844 -15.273438 9.355469 -16.5625 11.738281 -16.5625 C 14.511719 -16.5625 16.855469 -14.6875 17.050781 -12.441406 Z M 6.289062 -12.441406 "></path>
      </g>
    </g>
  </g>
  <g fill="#000000" fill-opacity="1">
    <g transform="translate(60.572237, 139.453887)">
      <g>
        <path d="M 10.800781 0.605469 C 14.0625 0.605469 16.71875 -0.878906 18.027344 -3.378906 L 18.027344 0 L 22.519531 0 L 22.519531 -20.078125 L 18.027344 -20.078125 L 18.027344 -16.679688 C 16.738281 -19.179688 14.0625 -20.683594 10.78125 -20.683594 C 5.410156 -20.683594 1.347656 -15.898438 1.347656 -10.039062 C 1.347656 -4.140625 5.371094 0.605469 10.800781 0.605469 Z M 11.933594 -3.769531 C 8.75 -3.769531 6.035156 -6.132812 6.035156 -10.039062 C 6.035156 -13.808594 8.691406 -16.308594 11.933594 -16.308594 C 15.214844 -16.308594 17.832031 -13.535156 17.832031 -10.039062 C 17.832031 -6.484375 15.234375 -3.769531 11.933594 -3.769531 Z M 11.933594 -3.769531 "></path>
      </g>
    </g>
  </g>
  <g fill="#000000" fill-opacity="1">
    <g transform="translate(85.182738, 139.453887)">
      <g>
        <path d="M 15.117188 0 L 15.117188 -3.925781 L 12.011719 -3.925781 C 10.507812 -3.925781 9.101562 -4.609375 9.101562 -7.421875 L 9.101562 -16.015625 L 15.117188 -16.015625 L 15.117188 -20.078125 L 9.101562 -20.078125 L 9.101562 -25.996094 L 4.375 -25.957031 L 4.375 -20.078125 L 0.214844 -20.078125 L 0.214844 -16.015625 L 4.375 -16.015625 L 4.375 -7.636719 C 4.375 -1.015625 8.007812 0 11.035156 0 Z M 15.117188 0 "></path>
      </g>
    </g>
  </g>
  <g fill="#000000" fill-opacity="1">
    <g transform="translate(100.673036, 139.453887)">
      <g>
        <path d="M 26.894531 0 L 15.839844 -26.582031 L 11.230469 -26.582031 L 0.175781 0 L 5.3125 0 L 7.421875 -5.136719 L 19.648438 -5.136719 L 21.757812 0 Z M 13.359375 -19.667969 L 13.515625 -20.3125 L 13.574219 -20.3125 L 13.691406 -19.667969 L 17.988281 -9.199219 L 9.082031 -9.199219 Z M 13.359375 -19.667969 "></path>
      </g>
    </g>
  </g>
  <g fill="#000000" fill-opacity="1">
    <g transform="translate(127.080242, 139.453887)">
      <g>
        <path d="M 7.5 0 L 7.5 -10.253906 C 7.5 -14.179688 10.039062 -16.328125 12.8125 -16.328125 C 15.664062 -16.328125 17.460938 -14.707031 17.460938 -10.722656 L 17.460938 0 L 22.1875 0 L 22.1875 -10.820312 C 22.1875 -17.128906 19.511719 -20.683594 14.121094 -20.683594 C 11.035156 -20.683594 8.417969 -19.140625 7.265625 -16.953125 L 7.265625 -20.078125 L 2.773438 -20.078125 L 2.773438 0 Z M 7.5 0 "></path>
      </g>
    </g>
  </g>
  <g fill="#000000" fill-opacity="1">
    <g transform="translate(151.202509, 139.453887)">
      <g>
        <path d="M 11.054688 0.605469 C 14.414062 0.605469 16.816406 -1.269531 18.007812 -3.378906 L 18.007812 0 L 22.5 0 L 22.5 -27.5 L 17.792969 -27.5 L 17.792969 -18.886719 L 17.890625 -16.796875 C 16.835938 -18.691406 14.394531 -20.683594 11.113281 -20.683594 C 5.253906 -20.683594 1.347656 -15.898438 1.347656 -10.039062 C 1.347656 -4.140625 5.351562 0.605469 11.054688 0.605469 Z M 11.914062 -3.75 C 8.457031 -3.75 5.996094 -6.484375 5.996094 -10.039062 C 5.996094 -13.691406 8.574219 -16.308594 11.914062 -16.308594 C 15.234375 -16.308594 17.832031 -13.554688 17.832031 -10.039062 C 17.832031 -6.484375 15.214844 -3.75 11.914062 -3.75 Z M 11.914062 -3.75 "></path>
      </g>
    </g>
  </g>
  <g fill="#000000" fill-opacity="1">
    <g transform="translate(175.773957, 139.453887)">
      <g>
        <path d="M 8.027344 0 L 8.027344 -8.476562 L 14.433594 -8.476562 C 19.765625 -8.476562 23.574219 -12.148438 23.574219 -17.617188 C 23.574219 -22.792969 19.726562 -26.5625 14.355469 -26.5625 L 3.164062 -26.5625 L 3.164062 0 Z M 8.027344 -22.226562 L 14.160156 -22.226562 C 16.738281 -22.226562 18.710938 -20.039062 18.710938 -17.617188 C 18.710938 -14.882812 16.738281 -12.8125 14.199219 -12.8125 L 8.027344 -12.8125 Z M 8.027344 -22.226562 "></path>
      </g>
    </g>
  </g>
  <g fill="#000000" fill-opacity="1">
    <g transform="translate(199.271285, 139.453887)">
      <g>
        <path d="M 11.894531 0.605469 C 18.085938 0.605469 22.519531 -4.121094 22.519531 -10.039062 C 22.519531 -15.917969 18.085938 -20.683594 11.914062 -20.683594 C 5.761719 -20.683594 1.347656 -15.898438 1.347656 -10.039062 C 1.347656 -4.140625 5.78125 0.605469 11.894531 0.605469 Z M 11.933594 -3.789062 C 8.554688 -3.789062 6.035156 -6.40625 6.035156 -10.039062 C 6.035156 -13.652344 8.554688 -16.308594 11.933594 -16.308594 C 15.3125 -16.308594 17.832031 -13.652344 17.832031 -10.039062 C 17.832031 -6.40625 15.3125 -3.789062 11.933594 -3.789062 Z M 11.933594 -3.789062 "></path>
      </g>
    </g>
  </g>
  <g fill="#000000" fill-opacity="1">
    <g transform="translate(222.456133, 139.453887)">
      <g>
        <path d="M 11.210938 0 L 15.449219 -13.007812 L 15.46875 -13.007812 L 19.648438 0 L 24.023438 0 L 30.800781 -20.078125 L 25.820312 -20.078125 L 21.894531 -7.558594 L 21.425781 -6.152344 L 21.367188 -6.152344 L 20.957031 -7.480469 L 17.285156 -20.078125 L 13.789062 -20.078125 L 9.980469 -7.34375 L 9.609375 -6.152344 L 9.550781 -6.152344 L 9.199219 -7.34375 L 5.273438 -20.078125 L 0.195312 -20.078125 L 6.953125 0 Z M 11.210938 0 "></path>
      </g>
    </g>
  </g>
  <g fill="#000000" fill-opacity="1">
    <g transform="translate(252.749672, 139.453887)">
      <g>
        <path d="M 21.875 -10.390625 C 21.875 -15.917969 17.8125 -20.683594 11.757812 -20.683594 C 5.722656 -20.683594 1.347656 -15.898438 1.347656 -10.039062 C 1.347656 -4.179688 5.722656 0.605469 11.757812 0.605469 C 16.757812 0.605469 20.332031 -2.695312 21.347656 -6.308594 L 16.191406 -6.308594 C 15.507812 -4.609375 14.042969 -3.613281 11.660156 -3.613281 C 8.886719 -3.613281 6.582031 -5.507812 6.09375 -8.789062 L 21.777344 -8.789062 C 21.855469 -9.53125 21.875 -9.882812 21.875 -10.390625 Z M 6.289062 -12.441406 C 7.089844 -15.273438 9.355469 -16.5625 11.738281 -16.5625 C 14.511719 -16.5625 16.855469 -14.6875 17.050781 -12.441406 Z M 6.289062 -12.441406 "></path>
      </g>
    </g>
  </g>
  <g fill="#000000" fill-opacity="1">
    <g transform="translate(275.016646, 139.453887)">
      <g>
        <path d="M 7.5 0 L 7.5 -9.335938 C 7.5 -13.613281 9.707031 -16.015625 12.949219 -16.015625 L 14.84375 -16.015625 L 14.84375 -20.078125 L 12.695312 -20.078125 C 10.078125 -20.078125 8.242188 -18.652344 7.304688 -16.445312 L 7.304688 -20.078125 L 2.773438 -20.078125 L 2.773438 0 Z M 7.5 0 "></path>
      </g>
    </g>
  </g>
</svg>
